<svg width="37" height="37" viewBox="0 0 37 37" fill="none" xmlns="http://www.w3.org/2000/svg">
<g clip-path="url(#clip0_1035_12580)">
<path d="M18.991 33.5201C10.7272 33.5201 4.01611 26.7912 4.01611 18.5452C4.01611 10.2992 10.7272 3.57031 18.991 3.57031C27.2549 3.57031 33.9659 10.2992 33.9659 18.5452C33.9659 26.7912 27.2549 33.5201 18.991 33.5201ZM18.991 4.46274C11.2269 4.46274 4.90854 10.7811 4.90854 18.5452C4.90854 26.3093 11.2269 32.6277 18.991 32.6277C26.7551 32.6277 33.0735 26.3093 33.0735 18.5452C33.0735 10.7811 26.7551 4.46274 18.991 4.46274Z" fill="#FF8A00"/>
<path d="M20.0974 11.4231C20.1331 12.2441 19.5263 12.9045 18.5624 12.9045C17.7235 12.9045 17.1167 12.2441 17.1167 11.4231C17.1167 10.5842 17.7414 9.92383 18.616 9.92383C19.5263 9.92383 20.0974 10.5842 20.0974 11.4231ZM17.438 27.1477V16.3315C17.438 15.6711 17.9734 15.1356 18.6338 15.1356C19.2942 15.1356 19.8297 15.6711 19.8297 16.3315V27.1298C19.8297 27.7902 19.2942 28.3257 18.6338 28.3257C17.9734 28.3435 17.438 27.8081 17.438 27.1477Z" fill="#FF8A00"/>
</g>
<defs>
<clipPath id="clip0_1035_12580">
<rect width="37" height="37" fill="white"/>
</clipPath>
</defs>
</svg>
