<svg width="190" height="65" viewBox="0 0 190 65" fill="none" xmlns="http://www.w3.org/2000/svg">
<path fill-rule="evenodd" clip-rule="evenodd" d="M37.08 21.932L51.04 13.9314L52.72 7.64236L41.84 13.8916L37.96 16.1206L27.72 21.9718C26.4 22.7281 25.64 23.3252 25.2 23.962C24.76 24.6387 24.48 25.5542 24.08 26.9871L22.4 33.1966C21.88 35.147 19.84 36.3411 17.88 35.7838L18.04 35.1868L11.6 38.9283C11 39.5254 10.56 40.2021 10.32 40.9185C10.28 41.0778 10.2 41.1972 10.12 41.3564C10.08 41.436 9.99999 41.5156 9.95999 41.5554L9.91999 41.5952L9.87999 41.635C9.75999 41.7544 9.63999 41.834 9.51999 41.9136L6.07999 43.9038C5.99999 43.9835 5.91999 44.1427 5.91999 44.3019C5.87999 44.5805 5.87999 44.8591 5.91999 45.1378C5.95999 46.4911 6.35999 47.8444 7.11999 49.0386C6.99999 49.0386 6.87999 48.9988 6.75999 48.9988H6.71999C6.63999 48.9988 6.55999 48.959 6.51999 48.959H6.47999C6.35999 48.9192 6.19999 48.8793 6.07999 48.8395C6.03999 48.8395 5.95999 48.7997 5.91999 48.7997C5.87999 48.7997 5.83999 48.7599 5.79999 48.7599H5.59999C5.55999 48.7599 5.51999 48.7201 5.47999 48.7201C5.43999 48.6803 5.35999 48.6803 5.31999 48.6405C4.83999 48.4415 4.39999 48.1231 3.99999 47.8046C3.67999 47.5658 3.43999 47.2474 3.19999 46.929C2.99999 46.6901 2.83999 46.4513 2.71999 46.1727C2.71999 46.1329 2.67999 46.0931 2.67999 46.0533C2.67999 46.0135 2.63999 45.9737 2.63999 45.9338C2.55999 45.7746 2.47999 45.5756 2.43999 45.4164C2.43999 45.3766 2.39999 45.3368 2.39999 45.2572C2.39999 45.2174 2.35999 45.1378 2.35999 45.098C2.35999 45.0582 2.31999 45.0184 2.31999 44.9786C2.27999 44.7397 2.23999 44.5407 2.23999 44.3815C2.23999 44.2621 2.23999 44.1029 2.27999 43.9835H2.31999V43.7844C2.31999 43.7048 2.35999 43.5854 2.35999 43.5058V43.3864C2.39999 43.267 2.39999 43.1476 2.43999 43.0282H2.47999V42.9485C2.47999 42.9087 2.47999 42.9087 2.51999 42.8689H2.39999V42.7893C2.39999 42.7495 2.43999 42.7097 2.43999 42.7097V42.6699C2.43999 42.6301 2.47999 42.5903 2.47999 42.5505C2.47999 42.5107 2.51999 42.4709 2.51999 42.4709V42.4311C2.55999 42.3515 2.59999 42.3117 2.63999 42.2321C2.67999 42.1923 2.67999 42.1127 2.71999 42.0729V42.0331C2.71999 41.9932 2.75999 41.9933 2.75999 41.9534L2.79999 41.9136V41.8738V41.834H2.83999V41.7942C2.83999 41.7544 2.87999 41.7544 2.87999 41.7146L2.91999 41.6748V41.635C3.03999 41.4758 3.15999 41.3564 3.31999 41.237H3.35999V41.1972H3.39999V41.1574L3.43999 41.1176H3.59999V41.0778L3.63999 41.038C3.71999 40.9583 3.79999 40.9185 3.91999 40.8389L7.07999 39.0477C7.11999 39.0079 7.11999 38.9283 7.15999 38.8885C7.15999 38.8487 7.19999 38.8089 7.19999 38.7691C7.19999 38.7293 7.23999 38.6895 7.23999 38.6895C7.23999 38.6497 7.27999 38.6099 7.27999 38.6099C7.27999 38.5701 7.31999 38.5303 7.31999 38.5303C7.39999 38.4109 7.43999 38.2915 7.51999 38.1721C7.55999 38.1323 7.59999 38.0527 7.59999 38.0128C7.71999 37.8536 7.79999 37.6944 7.91999 37.5352C7.95999 37.4556 8.03999 37.376 8.07999 37.3362L8.11999 37.2964C8.19999 37.2168 8.27999 37.1372 8.31999 37.0575C8.51999 36.8187 8.75999 36.5799 9.03999 36.3411C9.15999 36.2217 9.31999 36.1023 9.47999 36.0226L13.08 33.9528L19.32 30.3705L20.44 26.2308C20.52 25.8726 20.64 25.5144 20.72 25.2357C20.76 25.0367 20.84 24.8775 20.88 24.6785C20.88 24.6387 20.92 24.5591 20.92 24.5193C20.92 24.4795 20.96 24.3999 20.96 24.3601C20.96 24.3203 21 24.2406 21 24.2008C21.04 24.0416 21.12 23.9222 21.16 23.763C21.2 23.6834 21.24 23.6038 21.28 23.5242C21.28 23.4844 21.32 23.4446 21.32 23.4446V23.4048C21.44 23.1659 21.56 22.9271 21.68 22.6883V22.6485C21.68 22.6087 21.72 22.6087 21.72 22.5689C21.76 22.4893 21.84 22.4097 21.88 22.3301C21.92 22.2902 21.92 22.2504 21.96 22.2106L22 22.1708C22.04 22.0912 22.12 22.0116 22.16 21.9718C22.2 21.8922 22.28 21.8524 22.32 21.7728L22.36 21.733V21.6932C22.44 21.6136 22.52 21.534 22.56 21.4544C22.6 21.4146 22.64 21.335 22.72 21.2951L22.76 21.2553L22.8 21.2155L22.84 21.1757L22.88 21.1359L23.2 20.6981L23.24 20.6583L23.28 20.6185L23.32 20.5787C23.44 20.4593 23.56 20.3797 23.68 20.2602C23.76 20.2204 23.8 20.1408 23.88 20.101C23.96 20.0612 24 19.9816 24.08 19.9418C24.16 19.902 24.24 19.8224 24.28 19.7826C24.44 19.6632 24.6 19.5836 24.76 19.4642C24.8 19.4244 24.88 19.3846 24.92 19.3447C25 19.3049 25.08 19.2253 25.16 19.1855C25.32 19.0661 25.52 18.9865 25.68 18.8671L54.48 2.30862C54.88 2.0698 55.32 1.95038 55.8 2.0698H55.84C55.88 2.0698 55.92 2.0698 55.96 2.1096C56 2.1096 56 2.1096 56.04 2.1494C56.08 2.1494 56.12 2.18921 56.2 2.18921C56.28 2.22901 56.36 2.26882 56.4 2.30862C56.44 2.34842 56.52 2.38823 56.56 2.42803C56.72 2.54744 56.84 2.66686 56.92 2.78627C56.96 2.82607 57 2.90568 57.04 2.94548C57.04 2.98529 57.08 3.02509 57.08 3.02509C57.08 3.0649 57.12 3.1047 57.12 3.1445C57.28 3.46294 57.32 3.86098 57.24 4.21921V4.25902C57.24 4.29882 57.24 4.29882 57.2 4.33863L56.08 8.51805L54.16 15.6828C54.16 15.7226 54.12 15.7624 54.12 15.8022C54.08 15.9614 54 16.0808 53.92 16.24C53.8 16.4391 53.64 16.5983 53.44 16.7177C53.4 16.7575 53.36 16.7575 53.32 16.7973L52.52 17.2749L49.84 27.2658C49.84 27.3056 49.8 27.3454 49.8 27.425C49.72 27.5842 49.64 27.7832 49.52 27.9026C49.4 28.0618 49.28 28.1812 49.16 28.2609C49.08 28.3405 48.96 28.3803 48.88 28.4201L47.84 29.0171L47.8 29.0569L47.44 30.3307L46.04 35.5848L45.28 38.4109C45.28 38.4507 45.24 38.5303 45.24 38.5701V38.6099C45.12 38.9681 44.88 39.2468 44.6 39.4458C44.56 39.4856 44.48 39.5254 44.44 39.5652L44.4 39.605L41.64 41.1972L31.32 47.128C30.28 45.3766 30.92 43.1078 32.68 42.1127L42 36.7789L43.36 31.684L33.6 37.2168L32.44 37.8934C31.44 36.1421 32.04 33.913 33.8 32.8781L46.68 25.4746L48.2 19.7428L47.8 19.9816L35.72 26.9473C34.68 25.1959 35.28 22.9669 37.08 21.932ZM13.4 46.2125L13.24 46.1329L9.03999 46.6901C8.75999 44.6601 10.2 42.8291 12.2 42.5505L13.28 42.3913H13.32H13.76C13.84 42.3913 13.92 42.4311 14 42.4311C14.04 42.4311 14.12 42.4709 14.16 42.4709C14.2 42.4709 14.24 42.5107 14.28 42.5107L22.24 46.1329C22.28 46.1329 22.32 46.1727 22.36 46.1727C22.48 46.2523 22.64 46.3319 22.72 46.4513C22.76 46.4911 22.8 46.5309 22.84 46.5707C23 46.7697 23.12 46.9688 23.2 47.2076C23.32 47.526 23.32 47.8444 23.24 48.2027C23.24 48.2425 23.24 48.2425 23.24 48.2823L21.92 53.218L25.68 51.0686L26.8 50.4317C27.8 52.1831 27.2 54.4519 25.44 55.447L12.36 62.9302C11.36 61.1788 11.96 58.9498 13.72 57.9149L17.4 55.8053L19.28 48.7997L13.4 46.2125Z" fill="url(#paint0_linear_59_9796)"/>
<path fill-rule="evenodd" clip-rule="evenodd" d="M3.63995 37.774V37.7342C3.59995 37.6546 3.59995 37.575 3.59995 37.4954V37.4556C3.59995 37.376 3.55995 37.2963 3.55995 37.2167C3.51995 37.0177 3.47995 36.7789 3.43995 36.5799C3.43995 36.4605 3.39995 36.3411 3.39995 36.2216V36.142C3.39995 36.0226 3.35995 35.9032 3.35995 35.7838V35.744C3.35995 35.5848 3.31995 35.4256 3.31995 35.3061V35.2663C3.31995 35.0673 3.27995 34.9081 3.27995 34.7091V34.6295C3.27995 34.3907 3.23995 34.1518 3.23995 33.8732V33.7936C3.19995 33.3557 3.19995 32.9577 3.19995 32.5199C3.19995 31.8034 3.23995 31.1267 3.27995 30.4103V30.3306C3.31995 29.9724 3.35995 29.654 3.39995 29.2957V29.2559C3.39995 29.1365 3.43995 29.0171 3.43995 28.8579V28.8181C3.47995 28.4997 3.51995 28.1414 3.59995 27.823V27.7832C3.59995 27.7036 3.63995 27.5842 3.63995 27.5046C3.67995 27.3453 3.71995 27.1463 3.75995 26.9871C3.79995 26.8279 3.83995 26.6687 3.87995 26.5095C3.87995 26.4298 3.91995 26.39 3.91995 26.3104V26.2706C3.95995 26.0716 4.03995 25.8328 4.07995 25.6338C4.11995 25.5144 4.15995 25.3949 4.19995 25.2755V25.2357C4.23995 25.1163 4.27995 24.9969 4.31995 24.8775C4.39995 24.6387 4.47995 24.3998 4.51995 24.2008C4.51995 24.161 4.55995 24.0814 4.55995 24.0416C4.63995 23.8028 4.71995 23.5242 4.83995 23.2853C4.91995 23.0465 4.99995 22.8077 5.11995 22.5689C5.23995 22.33 5.31995 22.0514 5.43995 21.8126C5.51995 21.6534 5.59995 21.4941 5.63995 21.3349C5.63995 21.2951 5.67995 21.2553 5.67995 21.2155C5.83995 20.8971 5.99995 20.5787 6.15995 20.2602C6.15995 20.2204 6.19995 20.1806 6.19995 20.1806C6.19995 20.1408 6.23995 20.101 6.23995 20.0612C6.31995 19.902 6.39995 19.7428 6.51995 19.5836C6.59995 19.4641 6.67995 19.3447 6.71995 19.2253C6.83995 19.0263 6.91995 18.8671 7.03995 18.7079C7.11995 18.5486 7.19995 18.4292 7.31995 18.27C7.35995 18.2302 7.39995 18.1506 7.43995 18.1108C7.55995 17.9516 7.63995 17.7924 7.75995 17.6332C7.87995 17.4341 7.99995 17.2749 8.11995 17.1157C8.27995 16.9167 8.43995 16.6779 8.59995 16.4788C8.79995 16.2002 9.03995 15.9216 9.23995 15.6828C9.35995 15.5633 9.43995 15.4439 9.55995 15.3245C9.67995 15.1653 9.79995 15.0459 9.91995 14.8867C10.2 14.5682 10.52 14.2498 10.84 13.9314C11.16 13.6129 11.48 13.2945 11.84 13.0159C12 12.8965 12.12 12.7771 12.28 12.6178C12.4 12.4984 12.52 12.4188 12.64 12.2994C12.8 12.1402 13 12.0208 13.16 11.8616C13.24 11.782 13.32 11.7024 13.44 11.6625C13.6 11.5431 13.72 11.4635 13.88 11.3441C14 11.2645 14.12 11.1451 14.24 11.0655C14.36 10.9859 14.48 10.9063 14.64 10.7869C14.76 10.7073 14.84 10.6276 14.96 10.5878C15 10.548 15.08 10.5082 15.12 10.4684C15.4 10.2694 15.68 10.1102 16 9.91117C16.12 9.83156 16.24 9.75195 16.36 9.71215C16.44 9.67234 16.56 9.59274 16.64 9.55293C16.88 9.43352 17.12 9.31411 17.36 9.15489C17.4 9.15489 17.44 9.11509 17.48 9.11509C17.52 9.11509 17.56 9.07528 17.56 9.07528C17.6 9.07528 17.64 9.03548 17.64 9.03548C17.68 9.03548 17.72 8.99568 17.72 8.99568C17.88 8.91607 18 8.83646 18.16 8.79666C18.36 8.71705 18.56 8.59764 18.76 8.51803C18.92 8.43842 19.08 8.35881 19.24 8.31901C19.32 8.2792 19.4 8.2394 19.52 8.1996C19.6 8.15979 19.68 8.11999 19.76 8.08018C19.84 8.04038 19.92 8.00058 20.04 7.96077C20.72 7.68214 21.44 7.48312 22.12 7.2443H22.4C22.44 7.2443 22.52 7.20449 22.56 7.20449C22.64 7.20449 22.68 7.16469 22.76 7.16469H22.8C23.16 7.08508 23.52 6.96567 23.84 6.88606H23.88C23.96 6.88606 24.04 6.84626 24.08 6.84626C24.36 6.80645 24.6 6.72685 24.88 6.68704C25.32 6.60743 25.76 6.52783 26.2 6.48802H26.24C26.36 6.48802 26.52 6.44822 26.64 6.44822H26.68C27.0399 6.40841 27.4 6.36861 27.76 6.32881H27.8799C28.16 6.289 28.44 6.289 28.72 6.289H28.92C29.2 6.289 29.52 6.289 29.8 6.289C29.96 6.289 30.12 6.289 30.28 6.289H30.92C31.08 6.289 31.24 6.289 31.36 6.32881V6.36861H31.84C32.2 6.40841 32.52 6.40841 32.8799 6.44822H32.96C33.04 6.44822 33.12 6.44822 33.2 6.48802V6.52783H33.4C33.48 6.52783 33.52 6.52783 33.6 6.56763V6.60743H33.8C33.88 6.60743 33.92 6.60743 34 6.64724V6.68704H34.16C34.2 6.68704 34.28 6.68704 34.32 6.72685V6.76665H34.4799C34.5599 6.76665 34.64 6.80645 34.72 6.80645H34.8C34.96 6.84626 35.16 6.88606 35.32 6.92587H35.36C35.44 6.92587 35.48 6.96567 35.56 6.96567H35.6C35.6399 6.96567 35.72 7.00547 35.76 7.00547H35.84C35.88 7.00547 35.92 7.04528 35.96 7.04528V7.08508H36.04C36.08 7.08508 36.12 7.08508 36.16 7.12489V7.16469H36.2799C36.32 7.16469 36.36 7.16469 36.4 7.20449V6.76665H36.52C36.56 6.76665 36.6 6.80645 36.6399 6.80645V6.84626H36.72C36.76 6.84626 36.7999 6.88606 36.84 6.88606V6.92587H36.92C36.96 6.92587 37 6.96567 37.08 6.96567H37.12C37.16 6.96567 37.24 7.00547 37.2799 7.00547H37.32C37.48 7.04528 37.68 7.12489 37.84 7.16469H37.88C37.9199 7.16469 37.9599 7.20449 38.04 7.20449H38C38.04 7.20449 38.08 7.2443 38.12 7.2443H38.16C38.2 7.2443 38.24 7.2841 38.2799 7.2841H38.32C38.36 7.2841 38.4 7.32391 38.44 7.32391H38.4799L38.56 7.36371V7.40351H38.6399L38.72 7.44332V7.48312H38.8L38.88 7.52293V7.56273H38.92L39.04 7.60253H39.08L39.16 7.64234V7.68214H39.24L39.32 7.72195V7.76175H39.36L39.4799 7.80156H39.52C39.56 7.80156 39.6 7.84136 39.6399 7.84136C39.72 7.88116 39.7999 7.92097 39.88 7.96077C39.92 7.96077 39.96 8.00058 40 8.00058L35.76 10.4286C33.84 9.91117 31.84 9.63254 29.8 9.63254C23.44 9.63254 17.68 12.18 13.52 16.3196C9.39995 20.4592 6.83995 26.191 6.83995 32.5199C6.83995 33.3956 6.87995 34.2314 6.95995 35.0673C6.27995 35.7838 5.71995 36.5799 5.23995 37.4158L4.79995 37.6546L3.75995 38.2516C3.71995 38.0924 3.67995 37.9332 3.63995 37.774Z" fill="#131E20"/>
<path fill-rule="evenodd" clip-rule="evenodd" d="M28.76 59.0294L28.2 58.9896C28 58.9896 27.8 58.9498 27.64 58.9498H27.48C27.32 58.9498 27.16 58.91 27 58.91H26.96C26.84 58.91 26.76 58.8702 26.64 58.8702H26.48C26.4 58.8702 26.32 58.8304 26.24 58.8304V58.7906H26.08C26 58.7906 25.92 58.7508 25.88 58.7508V58.7109H25.72C25.64 58.7109 25.56 58.6711 25.48 58.6711H25.36C25.28 58.6711 25.16 58.6313 25.08 58.6313H25.04C24.96 58.6313 24.88 58.5915 24.8 58.5915L30.4 55.3674C36.52 55.2082 42.04 52.7005 46.08 48.6803C50.24 44.5407 52.8 38.8089 52.8 32.5199C52.8 30.7287 52.6 28.9773 52.2 27.3056C52.44 26.9075 52.64 26.5095 52.8 26.0318L54.04 21.3748C54.1201 21.534 54.16 21.6534 54.24 21.8126C54.2801 21.932 54.36 22.0514 54.4 22.1708C54.52 22.4495 54.64 22.6883 54.72 22.9669C54.76 23.0465 54.8 23.1659 54.84 23.2455C54.84 23.2853 54.88 23.3252 54.88 23.4048C55.04 23.8426 55.16 24.2406 55.32 24.6785V24.7183C55.32 24.7581 55.36 24.7979 55.36 24.8775C55.44 25.1163 55.52 25.395 55.56 25.6338C55.56 25.7134 55.6 25.7532 55.6 25.8328C55.6 25.9124 55.64 25.9522 55.64 26.0318V26.0716C55.64 26.1512 55.68 26.191 55.68 26.2707C55.68 26.3503 55.72 26.4299 55.72 26.4697C55.76 26.6289 55.8 26.7881 55.84 26.9473C55.84 27.0269 55.88 27.1065 55.88 27.2259C55.88 27.3056 55.92 27.425 55.92 27.5046C55.92 27.5842 55.96 27.7036 55.96 27.7832V27.8628C56 28.0618 56.04 28.2609 56.08 28.4997V28.5395C56.08 28.6589 56.12 28.7783 56.12 28.8977V28.9375C56.12 29.0569 56.16 29.2161 56.16 29.3356V29.3754C56.16 29.5346 56.2 29.654 56.2 29.8132V29.853C56.2 30.052 56.24 30.2113 56.24 30.4103V30.5297C56.24 30.7685 56.28 31.0073 56.28 31.286V31.4054C56.28 31.8034 56.32 32.2015 56.32 32.5995C56.32 33.0373 56.32 33.4354 56.28 33.8732V33.913C56.28 34.1917 56.24 34.4305 56.24 34.7091V34.6295C56.2 34.9877 56.16 35.346 56.12 35.7042C56.12 35.8236 56.08 35.943 56.08 36.0624V36.1022C56.04 36.3411 56 36.5799 55.96 36.8187C55.96 36.9381 55.92 37.0177 55.92 37.1372C55.92 37.2168 55.88 37.2964 55.88 37.4158V37.4556C55.84 37.7342 55.76 37.973 55.72 38.2517C55.72 38.3313 55.68 38.4109 55.68 38.4507V38.4905C55.6 38.8487 55.52 39.207 55.4 39.5254C55.36 39.6448 55.32 39.7642 55.28 39.8836C55.16 40.2419 55.08 40.5603 54.96 40.8787V40.9185C54.96 40.9583 54.92 40.9981 54.92 41.038C54.92 41.0778 54.88 41.1176 54.88 41.1972C54.88 41.237 54.84 41.3166 54.84 41.3564C54.8 41.5156 54.72 41.635 54.68 41.7942C54.56 42.1525 54.4 42.5107 54.24 42.8689C54.16 43.0282 54.08 43.1874 54.04 43.3466C54.04 43.3864 54 43.4262 54 43.466C53.68 44.1825 53.32 44.8989 52.92 45.5756C52.76 45.8542 52.6 46.1329 52.4401 46.3717C52.3601 46.5309 52.28 46.6503 52.16 46.8095C52.12 46.8493 52.08 46.9289 52.0401 46.9688C51.92 47.128 51.84 47.2872 51.72 47.4464C51.64 47.5658 51.56 47.6852 51.4401 47.8444C51.24 48.1231 51 48.4415 50.8 48.7201C50.56 48.9988 50.32 49.3172 50.08 49.5958C49.96 49.7152 49.88 49.8346 49.76 49.9541L49.72 49.9939C49.56 50.1929 49.4 50.3521 49.24 50.5113L49.2 50.5511L49.16 50.5909L49.12 50.6307C48.96 50.7899 48.84 50.9094 48.68 51.0686C48.52 51.2278 48.4 51.3472 48.24 51.4666L48.2 51.5064L48.16 51.5462L48.12 51.586C47.92 51.785 47.72 51.9443 47.52 52.1433C47.4 52.2627 47.28 52.3423 47.16 52.4617C46.96 52.6607 46.72 52.82 46.52 52.9792C46.36 53.0986 46.2 53.218 46.04 53.3772C45.88 53.4966 45.76 53.5762 45.6 53.6956C45.48 53.7752 45.36 53.8947 45.2 53.9743C45.16 54.0141 45.08 54.0539 45.04 54.0937C44.84 54.2529 44.6 54.3723 44.4 54.5315C44.36 54.5713 44.28 54.6111 44.24 54.6509C43.92 54.85 43.6 55.049 43.28 55.248C43.16 55.3276 43.04 55.4072 42.92 55.447C42.68 55.5664 42.44 55.6858 42.2 55.8052C42.16 55.8052 42.12 55.8451 42.08 55.8451C42.04 55.8451 42 55.8849 42 55.8849C41.96 55.8849 41.92 55.9247 41.92 55.9247C41.88 55.9247 41.84 55.9645 41.84 55.9645C41.72 56.0043 41.64 56.0839 41.52 56.1237C41.32 56.2033 41.12 56.3227 40.92 56.4023C40.88 56.4023 40.84 56.4421 40.8 56.4421C40.4 56.6013 40 56.7605 39.64 56.9198C39.56 56.9596 39.48 56.9994 39.36 57.0392C39.12 57.1188 38.84 57.2382 38.6 57.3178C38.56 57.3178 38.48 57.3576 38.44 57.3576C38.4 57.3576 38.32 57.3974 38.28 57.3974C38.04 57.477 37.8 57.5566 37.6 57.5964C37.48 57.6362 37.36 57.676 37.24 57.7158C36.8 57.8353 36.4 57.9547 35.96 58.0343C35.6 58.1139 35.24 58.1935 34.92 58.2333H34.88C34.56 58.2731 34.24 58.3527 33.92 58.3925C33.8 58.3925 33.64 58.4323 33.52 58.4323H33.48C33.32 58.4323 33.2 58.4721 33.04 58.4721C32.84 58.4721 32.68 58.5119 32.48 58.5119H32.44C32.2 58.5517 32 58.5517 31.76 58.5517C31.24 58.5915 30.68 58.5915 30.16 58.5915C29.48 59.0692 29.12 59.0692 28.76 59.0294Z" fill="#131E20"/>
<path d="M86.52 36.2217C86.04 35.6645 85.48 35.1868 84.92 34.8684C84.32 34.5499 83.76 34.3111 83.16 34.1519C83.96 33.9529 84.68 33.5548 85.28 32.9976C85.88 32.4403 86.36 31.7239 86.72 30.8482C87.08 29.9725 87.24 28.9774 87.24 27.8231C87.24 25.395 86.6 23.5242 85.28 22.2903C83.96 21.0166 81.96 20.3797 79.28 20.3797H68.28V49.0386H79.76C81.52 49.0386 83.04 48.7998 84.32 48.2823C85.6 47.7649 86.56 46.9688 87.2 45.8145C87.88 44.6602 88.2 43.1078 88.2 41.1574C88.2 40.0827 88.04 39.1274 87.76 38.2915C87.4 37.4556 87.04 36.779 86.52 36.2217ZM73.04 24.7183H79.2C80.16 24.7183 80.96 24.997 81.64 25.5542C82.32 26.1115 82.64 27.1464 82.6 28.6191C82.56 29.7735 82.28 30.7288 81.68 31.4452C81.08 32.1617 80.32 32.5199 79.36 32.5199H73.08V24.7183H73.04ZM83.04 42.9486C82.72 43.5855 82.24 44.0233 81.64 44.3417C81.04 44.6204 80.32 44.7796 79.52 44.7796H73V36.2615H79.52C80.28 36.2615 81 36.4207 81.6 36.7392C82.2 37.0576 82.68 37.5352 83 38.1323C83.32 38.7294 83.52 39.4458 83.52 40.3613C83.52 41.436 83.36 42.3117 83.04 42.9486Z" fill="#131E20"/>
<path d="M97 28.2609H92.16V49.0784H97V28.2609Z" fill="#131E20"/>
<path d="M96.44 19.9418H92.76C92.28 19.9418 92 20.2205 92 20.6981V24.2407C92 24.7183 92.24 24.9571 92.76 24.9571H96.44C96.92 24.9571 97.16 24.7183 97.16 24.2407V20.6981C97.16 20.4991 97.12 20.3001 97 20.1409C96.84 20.0214 96.68 19.9418 96.44 19.9418Z" fill="#131E20"/>
<path d="M113.16 27.9822C111.76 27.9822 110.56 28.3405 109.52 29.0171C108.52 29.7336 107.6 30.5695 106.76 31.5646L105.68 28.2211H101.92V49.0386H106.76V35.4654C107.32 34.9081 107.92 34.4305 108.48 34.0325C109.04 33.6742 109.68 33.3956 110.32 33.1966C111 32.9975 111.72 32.9179 112.52 32.9179C112.92 32.9179 113.32 32.9179 113.72 32.9577C114.12 32.9975 114.52 33.0374 114.88 33.0772V28.2211C114.6 28.1415 114.32 28.1016 114.04 28.0618C113.76 27.9822 113.44 27.9822 113.16 27.9822Z" fill="#131E20"/>
<path d="M131.24 19.4244V29.0172C130.48 28.7385 129.6 28.4997 128.6 28.2609C127.6 28.0619 126.56 27.9424 125.52 27.9424C123.56 27.9424 122 28.3007 120.84 29.057C119.68 29.8132 118.84 30.9676 118.36 32.5597C117.88 34.1519 117.6 36.2217 117.6 38.8089C117.6 41.2768 117.88 43.267 118.44 44.8194C119 46.3717 119.84 47.4862 120.96 48.2027C122.08 48.9192 123.44 49.2774 125.08 49.2774C125.84 49.2774 126.6 49.158 127.36 48.959C128.12 48.7202 128.84 48.4415 129.56 48.1231C130.24 47.8047 130.8 47.4066 131.2 47.0484L132 49.0784H136V19.4244H131.24ZM131.24 44.0631C130.68 44.3815 130.04 44.6601 129.28 44.9786C128.52 45.2572 127.68 45.4164 126.76 45.4164C125.76 45.4164 124.92 45.2174 124.28 44.8194C123.64 44.4213 123.2 43.7048 122.88 42.7097C122.6 41.7146 122.44 40.3613 122.44 38.6099C122.44 36.7391 122.6 35.3062 122.88 34.3111C123.16 33.316 123.68 32.5995 124.36 32.2015C125.04 31.8034 125.92 31.6044 127 31.6044C127.8 31.6044 128.56 31.684 129.24 31.883C129.92 32.0821 130.56 32.2811 131.24 32.5199V44.0631Z" fill="#131E20"/>
<path d="M153.08 20.3399C151.56 20.2603 149.72 20.2603 147.64 20.2603C146.88 20.2603 146.04 20.3797 145.24 20.5787C144.4 20.8175 143.68 21.1757 143 21.6534C142.32 22.1708 141.8 22.8475 141.36 23.763C140.92 24.6785 140.72 25.793 140.72 27.1464V42.6301C140.72 44.1427 140.96 45.3766 141.48 46.2523C142 47.128 142.64 47.8046 143.44 48.2425C144.2 48.6803 145.04 48.959 145.88 49.0784C146.72 49.1978 147.44 49.2774 148.08 49.2774C149.36 49.2376 150.76 49.2376 152.2 49.1978C153.64 49.158 155.08 49.0784 156.48 48.9988C157.88 48.8794 159.16 48.7599 160.32 48.6405V42.9884H149.52C149.16 42.9884 148.8 42.9088 148.52 42.7495C148.2 42.5903 147.96 42.3515 147.76 42.0331C147.56 41.7146 147.48 41.2768 147.48 40.6797V37.6546L158.4 37.2964V32.0422L147.48 31.6442V28.4599C147.48 27.7434 147.68 27.2658 148.08 26.9075C148.48 26.5891 149 26.4299 149.72 26.4299H160.32V20.8175C159.4 20.7379 158.32 20.6583 157.16 20.5787C156 20.4991 154.64 20.4195 153.08 20.3399Z" fill="url(#paint1_linear_59_9796)"/>
<path d="M187.88 20.2603H180.48L175.4 29.3356L169.72 20.2603H162.32L171.24 34.5897L162.4 49.0386H169.84L174.8 40.2419L180.28 49.0386H187.72L178.88 34.9479L187.88 20.2603Z" fill="url(#paint2_linear_59_9796)"/>
<defs>
<linearGradient id="paint0_linear_59_9796" x1="2.12939" y1="32.5028" x2="57.5206" y2="32.5028" gradientUnits="userSpaceOnUse">
<stop stop-color="#1D54B0"/>
<stop offset="0.2128" stop-color="#1E6AC6"/>
<stop offset="0.5072" stop-color="#2082DF"/>
<stop offset="0.7778" stop-color="#2191EE"/>
<stop offset="1" stop-color="#2196F3"/>
</linearGradient>
<linearGradient id="paint1_linear_59_9796" x1="150.523" y1="49.2851" x2="150.523" y2="20.2579" gradientUnits="userSpaceOnUse">
<stop stop-color="#1D54B0"/>
<stop offset="0.2128" stop-color="#1E6AC6"/>
<stop offset="0.5072" stop-color="#2082DF"/>
<stop offset="0.7778" stop-color="#2191EE"/>
<stop offset="1" stop-color="#2196F3"/>
</linearGradient>
<linearGradient id="paint2_linear_59_9796" x1="175.092" y1="49.0523" x2="175.092" y2="20.2579" gradientUnits="userSpaceOnUse">
<stop stop-color="#1D54B0"/>
<stop offset="0.2128" stop-color="#1E6AC6"/>
<stop offset="0.5072" stop-color="#2082DF"/>
<stop offset="0.7778" stop-color="#2191EE"/>
<stop offset="1" stop-color="#2196F3"/>
</linearGradient>
</defs>
</svg>
