<svg width="118" height="39" viewBox="0 0 118 39" fill="none" xmlns="http://www.w3.org/2000/svg">
<path fill-rule="evenodd" clip-rule="evenodd" d="M22.4188 12.834L31.2356 7.78748L32.2967 3.82055L25.4251 7.76238L22.9746 9.16838L16.5072 12.8591C15.6735 13.3362 15.1935 13.7128 14.9156 14.1145C14.6377 14.5413 14.4609 15.1188 14.2082 16.0226L13.1472 19.9394C12.8188 21.1696 11.5303 21.9228 10.2924 21.5713L10.3935 21.1947L6.32613 23.5548C5.94718 23.9314 5.66929 24.3582 5.51771 24.8101C5.49244 24.9106 5.44192 24.9859 5.39139 25.0863C5.36613 25.1365 5.3156 25.1868 5.29034 25.2119L5.26508 25.237L5.23981 25.2621C5.16402 25.3374 5.08823 25.3876 5.01244 25.4378L2.83981 26.6932C2.78929 26.7434 2.73876 26.8438 2.73876 26.9443C2.7135 27.12 2.7135 27.2958 2.73876 27.4715C2.76402 28.3251 3.01666 29.1788 3.49666 29.932C3.42087 29.932 3.34508 29.9069 3.26929 29.9069H3.24402C3.1935 29.9069 3.14297 29.8818 3.11771 29.8818H3.09245C3.01666 29.8567 2.9156 29.8316 2.83981 29.8065C2.81455 29.8065 2.76402 29.7814 2.73876 29.7814C2.7135 29.7814 2.68823 29.7563 2.66297 29.7563H2.53666C2.51139 29.7563 2.48613 29.7311 2.46087 29.7311C2.4356 29.706 2.38508 29.706 2.35981 29.6809C2.05666 29.5554 1.77876 29.3545 1.52613 29.1537C1.32402 29.003 1.17245 28.8022 1.02087 28.6013C0.894551 28.4507 0.793498 28.3 0.717709 28.1243C0.717709 28.0992 0.692445 28.0741 0.692445 28.049C0.692445 28.0239 0.667182 27.9988 0.667182 27.9736C0.616656 27.8732 0.56613 27.7477 0.540867 27.6473C0.540867 27.6221 0.515603 27.597 0.515603 27.5468C0.515603 27.5217 0.49034 27.4715 0.49034 27.4464C0.49034 27.4213 0.465077 27.3962 0.465077 27.3711C0.439814 27.2204 0.414551 27.0949 0.414551 26.9945C0.414551 26.9191 0.414551 26.8187 0.439814 26.7434H0.465077V26.6179C0.465077 26.5676 0.49034 26.4923 0.49034 26.4421V26.3668C0.515603 26.2915 0.515603 26.2161 0.540867 26.1408H0.56613V26.0906C0.56613 26.0655 0.56613 26.0655 0.591393 26.0404H0.515603V25.9902C0.515603 25.9651 0.540867 25.94 0.540867 25.94V25.9149C0.540867 25.8897 0.56613 25.8646 0.56613 25.8395C0.56613 25.8144 0.591393 25.7893 0.591393 25.7893V25.7642C0.616656 25.714 0.641919 25.6889 0.667182 25.6387C0.692446 25.6136 0.692446 25.5634 0.717709 25.5382V25.5131C0.717709 25.488 0.742972 25.488 0.742972 25.4629L0.768235 25.4378V25.4127V25.3876H0.793498V25.3625C0.793498 25.3374 0.818761 25.3374 0.818761 25.3123L0.844025 25.2872V25.2621C0.919814 25.1616 0.995604 25.0863 1.09666 25.011H1.12192V24.9859H1.14718V24.9608L1.17245 24.9357H1.2735V24.9106L1.29876 24.8855C1.34929 24.8352 1.39981 24.8101 1.4756 24.7599L3.47139 23.6301C3.49666 23.605 3.49666 23.5548 3.52192 23.5297C3.52192 23.5046 3.54718 23.4795 3.54718 23.4544C3.54718 23.4292 3.57245 23.4041 3.57245 23.4041C3.57245 23.379 3.59771 23.3539 3.59771 23.3539C3.59771 23.3288 3.62297 23.3037 3.62297 23.3037C3.6735 23.2284 3.69876 23.1531 3.74929 23.0777C3.77455 23.0526 3.79981 23.0024 3.79981 22.9773C3.8756 22.8769 3.92613 22.7765 4.00192 22.676C4.02718 22.6258 4.07771 22.5756 4.10297 22.5505L4.12823 22.5254C4.17876 22.4752 4.22929 22.425 4.25455 22.3747C4.38087 22.2241 4.53245 22.0735 4.70929 21.9228C4.78508 21.8475 4.88613 21.7722 4.98718 21.722L7.26087 20.4164L11.2019 18.1567L11.9093 15.5456C11.9598 15.3196 12.0356 15.0937 12.0861 14.9179C12.1114 14.7924 12.1619 14.692 12.1872 14.5664C12.1872 14.5413 12.2124 14.4911 12.2124 14.466C12.2124 14.4409 12.2377 14.3907 12.2377 14.3656C12.2377 14.3405 12.263 14.2902 12.263 14.2651C12.2882 14.1647 12.3388 14.0894 12.364 13.989C12.3893 13.9387 12.4146 13.8885 12.4398 13.8383C12.4398 13.8132 12.4651 13.7881 12.4651 13.7881V13.763C12.5409 13.6123 12.6167 13.4617 12.6924 13.3111V13.286C12.6924 13.2608 12.7177 13.2608 12.7177 13.2357C12.743 13.1855 12.7935 13.1353 12.8188 13.0851C12.844 13.06 12.844 13.0349 12.8693 13.0098L12.8946 12.9847C12.9198 12.9345 12.9703 12.8842 12.9956 12.8591C13.0209 12.8089 13.0714 12.7838 13.0967 12.7336L13.1219 12.7085V12.6834C13.1724 12.6332 13.223 12.583 13.2482 12.5327C13.2735 12.5076 13.2988 12.4574 13.3493 12.4323L13.3746 12.4072L13.3998 12.3821L13.4251 12.357L13.4503 12.3319L13.6524 12.0557L13.6777 12.0306L13.703 12.0055L13.7282 11.9804C13.804 11.9051 13.8798 11.8548 13.9556 11.7795C14.0061 11.7544 14.0314 11.7042 14.0819 11.6791C14.1324 11.654 14.1577 11.6038 14.2082 11.5787C14.2588 11.5536 14.3093 11.5033 14.3346 11.4782C14.4356 11.4029 14.5367 11.3527 14.6377 11.2774C14.663 11.2523 14.7135 11.2272 14.7388 11.2021C14.7893 11.177 14.8398 11.1267 14.8903 11.1016C14.9914 11.0263 15.1177 10.9761 15.2188 10.9008L33.4082 0.456193C33.6609 0.30555 33.9388 0.230228 34.2419 0.30555H34.2672C34.2924 0.30555 34.3177 0.30555 34.343 0.330657C34.3682 0.330657 34.3682 0.330657 34.3935 0.355764C34.4188 0.355764 34.444 0.380871 34.4945 0.380871C34.5451 0.405979 34.5956 0.431086 34.6209 0.456193C34.6461 0.4813 34.6967 0.506407 34.7219 0.531514C34.823 0.606836 34.8988 0.682157 34.9493 0.757479C34.9745 0.782586 34.9998 0.8328 35.0251 0.857908C35.0251 0.883015 35.0503 0.908122 35.0503 0.908122C35.0503 0.933229 35.0756 0.958336 35.0756 0.983443C35.1767 1.1843 35.2019 1.43537 35.1514 1.66134V1.68644C35.1514 1.71155 35.1514 1.71155 35.1261 1.73666L34.4188 4.37291L33.2061 8.8922C33.2061 8.91731 33.1809 8.94241 33.1809 8.96752C33.1556 9.06795 33.1051 9.14327 33.0546 9.2437C32.9788 9.36924 32.8777 9.46966 32.7514 9.54499C32.7261 9.57009 32.7009 9.57009 32.6756 9.5952L32.1703 9.89649L30.4777 16.1984C30.4777 16.2235 30.4524 16.2486 30.4524 16.2988C30.4019 16.3992 30.3514 16.5248 30.2756 16.6001C30.1998 16.7005 30.124 16.7759 30.0482 16.8261C29.9977 16.8763 29.9219 16.9014 29.8714 16.9265L29.2146 17.3031L29.1893 17.3282L28.9619 18.1316L28.0777 21.4458L27.5977 23.2284C27.5977 23.2535 27.5724 23.3037 27.5724 23.3288V23.3539C27.4967 23.5799 27.3451 23.7556 27.1682 23.8812C27.143 23.9063 27.0924 23.9314 27.0672 23.9565L27.0419 23.9816L25.2988 24.9859L18.7809 28.7269C18.124 27.6221 18.5282 26.191 19.6398 25.5634L25.5261 22.199L26.3851 18.9853L20.2209 22.4752L19.4882 22.902C18.8567 21.7973 19.2356 20.3913 20.3472 19.7385L28.4819 15.0686L29.4419 11.4531L29.1893 11.6038L21.5598 15.9975C20.903 14.8928 21.2819 13.4868 22.4188 12.834ZM7.46297 28.1494L7.36192 28.0992L4.70929 28.4507C4.53245 27.1702 5.44192 26.0153 6.70508 25.8395L7.38718 25.7391H7.41245H7.69034C7.74087 25.7391 7.79139 25.7642 7.84192 25.7642C7.86718 25.7642 7.91771 25.7893 7.94297 25.7893C7.96824 25.7893 7.9935 25.8144 8.01876 25.8144L13.0461 28.0992C13.0714 28.0992 13.0967 28.1243 13.1219 28.1243C13.1977 28.1745 13.2988 28.2247 13.3493 28.3C13.3746 28.3251 13.3998 28.3503 13.4251 28.3754C13.5261 28.5009 13.6019 28.6264 13.6524 28.7771C13.7282 28.9779 13.7282 29.1788 13.6777 29.4048C13.6777 29.4299 13.6777 29.4299 13.6777 29.455L12.844 32.5683L15.2188 31.2125L15.9261 30.8108C16.5577 31.9155 16.1788 33.3466 15.0672 33.9743L6.80613 38.6944C6.17455 37.5897 6.5535 36.1837 7.66508 35.5309L9.98929 34.2002L11.1767 29.7814L7.46297 28.1494Z" fill="url(#paint0_linear_50_1187)"/>
<path d="M1.29889 22.8267V22.8016C1.27363 22.7514 1.27363 22.7011 1.27363 22.6509V22.6258C1.27363 22.5756 1.24836 22.5254 1.24836 22.4752C1.2231 22.3496 1.19784 22.199 1.17258 22.0735C1.17258 21.9981 1.14731 21.9228 1.14731 21.8475V21.7973C1.14731 21.722 1.12205 21.6466 1.12205 21.5713V21.5462C1.12205 21.4458 1.09679 21.3454 1.09679 21.27V21.2449C1.09679 21.1194 1.07152 21.019 1.07152 20.8934V20.8432C1.07152 20.6926 1.04626 20.5419 1.04626 20.3662V20.316C1.021 20.0398 1.021 19.7887 1.021 19.5125C1.021 19.0606 1.04626 18.6338 1.07152 18.1819V18.1316C1.09679 17.9057 1.12205 17.7048 1.14731 17.4789V17.4538C1.14731 17.3784 1.17258 17.3031 1.17258 17.2027V17.1776C1.19784 16.9767 1.2231 16.7508 1.27363 16.5499V16.5248C1.27363 16.4746 1.29889 16.3993 1.29889 16.349C1.32415 16.2486 1.34942 16.1231 1.37468 16.0226C1.39994 15.9222 1.42521 15.8218 1.45047 15.7214C1.45047 15.6711 1.47573 15.646 1.47573 15.5958V15.5707C1.501 15.4452 1.55152 15.2945 1.57679 15.169C1.60205 15.0937 1.62731 15.0184 1.65258 14.943V14.9179C1.67784 14.8426 1.7031 14.7673 1.72836 14.692C1.77889 14.5413 1.82942 14.3907 1.85468 14.2651C1.85468 14.24 1.87994 14.1898 1.87994 14.1647C1.93047 14.0141 1.981 13.8383 2.05679 13.6877C2.10731 13.537 2.15784 13.3864 2.23363 13.2357C2.30942 13.0851 2.35994 12.9094 2.43573 12.7587C2.48626 12.6583 2.53679 12.5579 2.56205 12.4574C2.56205 12.4323 2.58731 12.4072 2.58731 12.3821C2.68836 12.1812 2.78942 11.9804 2.89047 11.7795C2.89047 11.7544 2.91573 11.7293 2.91573 11.7293C2.91573 11.7042 2.941 11.6791 2.941 11.654C2.99152 11.5536 3.04205 11.4531 3.11784 11.3527C3.16836 11.2774 3.21889 11.2021 3.24415 11.1267C3.31994 11.0012 3.37047 10.9008 3.44626 10.8004C3.49679 10.6999 3.54731 10.6246 3.6231 10.5242C3.64836 10.4991 3.67363 10.4489 3.69889 10.4237C3.77468 10.3233 3.82521 10.2229 3.901 10.1225C3.97679 9.99692 4.05257 9.8965 4.12836 9.79607C4.22942 9.67053 4.33047 9.51989 4.43152 9.39435C4.55784 9.2186 4.70942 9.04285 4.83573 8.89221C4.91152 8.81689 4.96205 8.74157 5.03784 8.66624C5.11363 8.56582 5.18942 8.4905 5.26521 8.39007C5.44205 8.18921 5.64415 7.98835 5.84626 7.78749C6.04836 7.58664 6.25047 7.38578 6.47784 7.21003C6.57889 7.13471 6.65468 7.05939 6.75573 6.95896C6.83152 6.88364 6.90731 6.83342 6.9831 6.7581C7.08415 6.65767 7.21047 6.58235 7.31152 6.48192C7.36205 6.43171 7.41257 6.38149 7.48836 6.35639C7.58942 6.28106 7.66521 6.23085 7.76626 6.15553C7.84205 6.10531 7.91784 6.02999 7.99363 5.97978C8.06942 5.92956 8.14521 5.87935 8.24626 5.80403C8.32205 5.75381 8.37258 5.7036 8.44836 5.67849C8.47363 5.65339 8.52415 5.62828 8.54942 5.60317C8.72626 5.47763 8.9031 5.37721 9.10521 5.25167C9.181 5.20146 9.25679 5.15124 9.33257 5.12613C9.3831 5.10103 9.45889 5.05081 9.50942 5.02571C9.661 4.95038 9.81258 4.87506 9.96415 4.77463C9.98942 4.77463 10.0147 4.74953 10.0399 4.74953C10.0652 4.74953 10.0905 4.72442 10.0905 4.72442C10.1157 4.72442 10.141 4.69931 10.141 4.69931C10.1663 4.69931 10.1915 4.67421 10.1915 4.67421C10.2926 4.62399 10.3684 4.57378 10.4694 4.54867C10.5957 4.49846 10.722 4.42313 10.8484 4.37292C10.9494 4.32271 11.0505 4.27249 11.1515 4.24738C11.202 4.22228 11.2526 4.19717 11.3284 4.17206C11.3789 4.14696 11.4294 4.12185 11.4799 4.09674C11.5305 4.07163 11.581 4.04653 11.6568 4.02142C12.0863 3.84567 12.541 3.72013 12.9705 3.56949H13.1473C13.1726 3.56949 13.2231 3.54438 13.2484 3.54438C13.2989 3.54438 13.3242 3.51928 13.3747 3.51928H13.3999C13.6273 3.46906 13.8547 3.39374 14.0568 3.34353H14.082C14.1326 3.34353 14.1831 3.31842 14.2084 3.31842C14.3852 3.29331 14.5368 3.2431 14.7136 3.21799C14.9915 3.16778 15.2694 3.11756 15.5473 3.09245H15.5726C15.6484 3.09245 15.7494 3.06735 15.8252 3.06735H15.8505C16.0778 3.04224 16.3052 3.01713 16.5326 2.99203H16.6084C16.7852 2.96692 16.962 2.96692 17.1389 2.96692H17.2652C17.442 2.96692 17.6442 2.96692 17.821 2.96692C17.922 2.96692 18.0231 2.96692 18.1242 2.96692H18.5284C18.6294 2.96692 18.7305 2.96692 18.8063 2.99203V3.01713H19.1094C19.3368 3.04224 19.5389 3.04224 19.7663 3.06735H19.8168C19.8673 3.06735 19.9178 3.06735 19.9684 3.09245V3.11756H20.0947C20.1452 3.11756 20.1705 3.11756 20.221 3.14267V3.16778H20.3473C20.3978 3.16778 20.4231 3.16778 20.4736 3.19288V3.21799H20.5747C20.5999 3.21799 20.6505 3.21799 20.6757 3.2431V3.2682H20.7768C20.8273 3.2682 20.8778 3.29331 20.9284 3.29331H20.9789C21.0799 3.31842 21.2063 3.34353 21.3073 3.36863H21.3326C21.3831 3.36863 21.4084 3.39374 21.4589 3.39374H21.4842C21.5094 3.39374 21.5599 3.41885 21.5852 3.41885H21.6357C21.661 3.41885 21.6863 3.44396 21.7115 3.44396V3.46906H21.762C21.7873 3.46906 21.8126 3.46906 21.8378 3.49417V3.51928H21.9136C21.9389 3.51928 21.9642 3.51928 21.9894 3.54438V3.2682H22.0652C22.0905 3.2682 22.1157 3.29331 22.141 3.29331V3.31842H22.1915C22.2168 3.31842 22.242 3.34353 22.2673 3.34353V3.36863H22.3178C22.3431 3.36863 22.3684 3.39374 22.4189 3.39374H22.4442C22.4694 3.39374 22.5199 3.41885 22.5452 3.41885H22.5705C22.6715 3.44396 22.7978 3.49417 22.8989 3.51928H22.9242C22.9494 3.51928 22.9747 3.54438 23.0252 3.54438H22.9999C23.0252 3.54438 23.0505 3.56949 23.0757 3.56949H23.101C23.1263 3.56949 23.1515 3.5946 23.1768 3.5946H23.202C23.2273 3.5946 23.2526 3.61971 23.2778 3.61971H23.3031L23.3536 3.64481V3.66992H23.4042L23.4547 3.69503V3.72013H23.5052L23.5557 3.74524V3.77035H23.581L23.6568 3.79546H23.682L23.7326 3.82056V3.84567H23.7831L23.8336 3.87078V3.89588H23.8589L23.9347 3.92099H23.9599C23.9852 3.92099 24.0105 3.9461 24.0357 3.9461C24.0863 3.97121 24.1368 3.99631 24.1873 4.02142C24.2126 4.02142 24.2378 4.04653 24.2631 4.04653L21.5852 5.57806C20.3726 5.25167 19.1094 5.07592 17.821 5.07592C13.8042 5.07592 10.1663 6.68278 7.53889 9.29392C4.93679 11.9051 3.31994 15.5205 3.31994 19.5125C3.31994 20.0649 3.34521 20.5921 3.39573 21.1194C2.96626 21.5713 2.61258 22.0735 2.30942 22.6007L2.03152 22.7514L1.37468 23.128C1.34942 23.0275 1.32415 22.9271 1.29889 22.8267Z" fill="white"/>
<path d="M17.1641 36.2339L16.8105 36.2088C16.6841 36.2088 16.5578 36.1837 16.4568 36.1837H16.3557C16.2547 36.1837 16.1536 36.1586 16.0526 36.1586H16.0273C15.9515 36.1586 15.901 36.1335 15.8252 36.1335H15.7241C15.6736 36.1335 15.6231 36.1084 15.5726 36.1084V36.0833H15.4715C15.421 36.0833 15.3705 36.0582 15.3452 36.0582V36.0331H15.2441C15.1936 36.0331 15.1431 36.008 15.0926 36.008H15.0168C14.9662 36.008 14.8905 35.9829 14.8399 35.9829H14.8147C14.7641 35.9829 14.7136 35.9577 14.6631 35.9577L18.1999 33.9241C22.0652 33.8236 25.5515 32.2419 28.1031 29.7061C30.7305 27.0949 32.3473 23.4795 32.3473 19.5125C32.3473 18.3827 32.221 17.278 31.9683 16.2235C32.1199 15.9724 32.2462 15.7214 32.3473 15.4201L33.1305 12.4825C33.181 12.583 33.2062 12.6583 33.2568 12.7587C33.282 12.834 33.3326 12.9094 33.3578 12.9847C33.4336 13.1604 33.5094 13.3111 33.5599 13.4868C33.5852 13.537 33.6105 13.6124 33.6357 13.6626C33.6357 13.6877 33.661 13.7128 33.661 13.763C33.762 14.0392 33.8378 14.2903 33.9389 14.5664V14.5915C33.9389 14.6167 33.9641 14.6418 33.9641 14.692C34.0147 14.8426 34.0652 15.0184 34.0905 15.169C34.0905 15.2192 34.1157 15.2443 34.1157 15.2945C34.1157 15.3448 34.141 15.3699 34.141 15.4201V15.4452C34.141 15.4954 34.1662 15.5205 34.1662 15.5707C34.1662 15.6209 34.1915 15.6712 34.1915 15.6963C34.2168 15.7967 34.242 15.8971 34.2673 15.9975C34.2673 16.0478 34.2926 16.098 34.2926 16.1733C34.2926 16.2235 34.3178 16.2988 34.3178 16.349C34.3178 16.3993 34.3431 16.4746 34.3431 16.5248V16.575C34.3683 16.7005 34.3936 16.8261 34.4189 16.9767V17.0018C34.4189 17.0772 34.4441 17.1525 34.4441 17.2278V17.2529C34.4441 17.3282 34.4694 17.4287 34.4694 17.504V17.5291C34.4694 17.6295 34.4947 17.7048 34.4947 17.8053V17.8304C34.4947 17.9559 34.5199 18.0563 34.5199 18.1819V18.2572C34.5199 18.4078 34.5452 18.5585 34.5452 18.7342V18.8095C34.5452 19.0606 34.5705 19.3117 34.5705 19.5628C34.5705 19.8389 34.5705 20.09 34.5452 20.3662V20.3913C34.5452 20.567 34.5199 20.7177 34.5199 20.8934V20.8432C34.4947 21.0692 34.4694 21.2952 34.4441 21.5211C34.4441 21.5964 34.4189 21.6718 34.4189 21.7471V21.7722C34.3936 21.9228 34.3683 22.0735 34.3431 22.2241C34.3431 22.2994 34.3178 22.3497 34.3178 22.425C34.3178 22.4752 34.2926 22.5254 34.2926 22.6007V22.6258C34.2673 22.8016 34.2168 22.9522 34.1915 23.128C34.1915 23.1782 34.1662 23.2284 34.1662 23.2535V23.2786C34.1157 23.5046 34.0652 23.7306 33.9894 23.9314C33.9641 24.0067 33.9389 24.0821 33.9136 24.1574C33.8378 24.3833 33.7873 24.5842 33.7115 24.7851V24.8102C33.7115 24.8353 33.6862 24.8604 33.6862 24.8855C33.6862 24.9106 33.661 24.9357 33.661 24.9859C33.661 25.011 33.6357 25.0612 33.6357 25.0863C33.6105 25.1868 33.5599 25.2621 33.5347 25.3625C33.4589 25.5885 33.3578 25.8144 33.2568 26.0404C33.2062 26.1408 33.1557 26.2413 33.1305 26.3417C33.1305 26.3668 33.1052 26.3919 33.1052 26.417C32.9031 26.8689 32.6757 27.3209 32.4231 27.7477C32.322 27.9234 32.221 28.0992 32.1199 28.2498C32.0694 28.3503 32.0189 28.4256 31.9431 28.526C31.9178 28.5511 31.8926 28.6013 31.8673 28.6265C31.7915 28.7269 31.741 28.8273 31.6652 28.9277C31.6147 29.0031 31.5641 29.0784 31.4883 29.1788C31.362 29.3546 31.2105 29.5554 31.0841 29.7312C30.9326 29.9069 30.781 30.1078 30.6294 30.2835C30.5536 30.3588 30.5031 30.4342 30.4273 30.5095L30.402 30.5346C30.301 30.6601 30.1999 30.7606 30.0989 30.861L30.0736 30.8861L30.0483 30.9112L30.0231 30.9363C29.922 31.0367 29.8462 31.1121 29.7452 31.2125C29.6441 31.3129 29.5683 31.3882 29.4673 31.4636L29.442 31.4887L29.4168 31.5138L29.3915 31.5389C29.2652 31.6644 29.1389 31.7648 29.0126 31.8904C28.9368 31.9657 28.861 32.0159 28.7852 32.0912C28.6589 32.2168 28.5073 32.3172 28.381 32.4176C28.2799 32.493 28.1789 32.5683 28.0778 32.6687C27.9768 32.744 27.901 32.7942 27.7999 32.8696C27.7241 32.9198 27.6483 32.9951 27.5473 33.0453C27.522 33.0704 27.4715 33.0955 27.4462 33.1206C27.3199 33.2211 27.1683 33.2964 27.042 33.3968C27.0168 33.4219 26.9662 33.447 26.941 33.4721C26.7389 33.5977 26.5368 33.7232 26.3347 33.8487C26.2589 33.899 26.1831 33.9492 26.1073 33.9743C25.9557 34.0496 25.8041 34.1249 25.6526 34.2002C25.6273 34.2002 25.602 34.2253 25.5768 34.2253C25.5515 34.2253 25.5262 34.2505 25.5262 34.2505C25.501 34.2505 25.4757 34.2756 25.4757 34.2756C25.4505 34.2756 25.4252 34.3007 25.4252 34.3007C25.3494 34.3258 25.2989 34.376 25.2231 34.4011C25.0968 34.4513 24.9705 34.5266 24.8441 34.5768C24.8189 34.5768 24.7936 34.602 24.7683 34.602C24.5157 34.7024 24.2631 34.8028 24.0357 34.9032C23.9852 34.9283 23.9347 34.9535 23.8589 34.9786C23.7073 35.0288 23.5305 35.1041 23.3789 35.1543C23.3536 35.1543 23.3031 35.1794 23.2778 35.1794C23.2526 35.1794 23.202 35.2045 23.1768 35.2045C23.0252 35.2547 22.8736 35.305 22.7473 35.3301C22.6715 35.3552 22.5957 35.3803 22.5199 35.4054C22.242 35.4807 21.9894 35.556 21.7115 35.6062C21.4841 35.6565 21.2568 35.7067 21.0547 35.7318H21.0294C20.8273 35.7569 20.6252 35.8071 20.4231 35.8322C20.3473 35.8322 20.2462 35.8573 20.1705 35.8573H20.1452C20.0441 35.8573 19.9683 35.8824 19.8673 35.8824C19.741 35.8824 19.6399 35.9075 19.5136 35.9075H19.4883C19.3368 35.9326 19.2105 35.9326 19.0589 35.9326C18.7305 35.9577 18.3768 35.9577 18.0483 35.9577C17.6189 36.259 17.3915 36.259 17.1641 36.2339Z" fill="white"/>
<path d="M53.644 21.8475C53.3409 21.496 52.9872 21.1947 52.6335 20.9939C52.2546 20.793 51.9009 20.6424 51.5219 20.5419C52.0272 20.4164 52.4819 20.1653 52.8609 19.8138C53.2398 19.4623 53.543 19.0104 53.7703 18.458C53.9977 17.9057 54.0988 17.278 54.0988 16.5499C54.0988 15.0184 53.6945 13.8383 52.8609 13.06C52.0272 12.2566 50.764 11.8549 49.0714 11.8549H42.124V29.932H49.3745C50.4861 29.932 51.4461 29.7814 52.2546 29.455C53.063 29.1286 53.6693 28.6264 54.0735 27.8983C54.503 27.1702 54.7051 26.191 54.7051 24.9608C54.7051 24.2829 54.604 23.6803 54.4272 23.1531C54.1998 22.6258 53.9724 22.199 53.644 21.8475ZM45.1303 14.5915H49.0209C49.6272 14.5915 50.1324 14.7673 50.5619 15.1188C50.9914 15.4703 51.1935 16.1231 51.1682 17.052C51.143 17.7801 50.9661 18.3827 50.5872 18.8346C50.2082 19.2866 49.7282 19.5125 49.1219 19.5125H45.1556V14.5915H45.1303ZM51.4461 26.0906C51.244 26.4923 50.9409 26.7685 50.5619 26.9694C50.183 27.1451 49.7282 27.2455 49.223 27.2455H45.1051V21.8726H49.223C49.703 21.8726 50.1577 21.973 50.5367 22.1739C50.9156 22.3748 51.2188 22.676 51.4209 23.0527C51.623 23.4293 51.7493 23.8812 51.7493 24.4587C51.7493 25.1365 51.6482 25.6889 51.4461 26.0906Z" fill="white"/>
<path d="M60.2629 16.826H57.2061V29.9571H60.2629V16.826Z" fill="white"/>
<path d="M59.9092 11.5787H57.585C57.2818 11.5787 57.105 11.7544 57.105 12.0557V14.2902C57.105 14.5915 57.2566 14.7422 57.585 14.7422H59.9092C60.2124 14.7422 60.3639 14.5915 60.3639 14.2902V12.0557C60.3639 11.9302 60.3387 11.8046 60.2629 11.7042C60.1618 11.6289 60.0608 11.5787 59.9092 11.5787Z" fill="white"/>
<path d="M70.4691 16.6503C69.5849 16.6503 68.827 16.8762 68.1701 17.3031C67.5385 17.755 66.9575 18.2822 66.427 18.9099L65.7449 16.8009H63.3701V29.932H66.427V21.3704C66.7806 21.0189 67.1596 20.7176 67.5133 20.4666C67.867 20.2406 68.2712 20.0648 68.6754 19.9393C69.1049 19.8138 69.5596 19.7636 70.0649 19.7636C70.3175 19.7636 70.5701 19.7636 70.8227 19.7887C71.0754 19.8138 71.328 19.8389 71.5554 19.864V16.8009C71.3785 16.7507 71.2017 16.7256 71.0249 16.7005C70.848 16.6503 70.6459 16.6503 70.4691 16.6503Z" fill="white"/>
<path d="M81.8882 11.2523V17.3031C81.4082 17.1273 80.8524 16.9767 80.2208 16.826C79.5892 16.7005 78.9324 16.6252 78.2755 16.6252C77.0376 16.6252 76.0524 16.8512 75.3198 17.3282C74.5871 17.8052 74.0566 18.5333 73.7534 19.5376C73.4503 20.5419 73.2734 21.8475 73.2734 23.4794C73.2734 25.0361 73.4503 26.2915 73.804 27.2706C74.1576 28.2498 74.6882 28.9528 75.3955 29.4047C76.1029 29.8567 76.9619 30.0826 77.9977 30.0826C78.4777 30.0826 78.9576 30.0073 79.4376 29.8818C79.9176 29.7311 80.3724 29.5554 80.8271 29.3545C81.2566 29.1537 81.6103 28.9026 81.8629 28.6766L82.3682 29.9571H84.8945V11.2523H81.8882ZM81.8882 26.7936C81.5345 26.9945 81.1303 27.1702 80.6503 27.3711C80.1703 27.5468 79.6398 27.6472 79.0587 27.6472C78.4271 27.6472 77.8966 27.5217 77.4924 27.2706C77.0882 27.0196 76.8103 26.5676 76.6082 25.94C76.4313 25.3123 76.3303 24.4586 76.3303 23.3539C76.3303 22.1739 76.4313 21.27 76.6082 20.6423C76.785 20.0147 77.1134 19.5627 77.5429 19.3117C77.9724 19.0606 78.5282 18.9351 79.2103 18.9351C79.7155 18.9351 80.1955 18.9853 80.625 19.1108C81.0545 19.2363 81.4587 19.3619 81.8882 19.5125V26.7936Z" fill="white"/>
<path d="M95.6818 11.8297C94.7218 11.7795 93.5597 11.7795 92.246 11.7795C91.766 11.7795 91.2355 11.8548 90.7302 11.9803C90.1997 12.131 89.745 12.3569 89.3155 12.6582C88.886 12.9846 88.5576 13.4114 88.2797 13.9889C88.0018 14.5664 87.8755 15.2694 87.8755 16.123V25.8897C87.8755 26.8438 88.0271 27.6221 88.3555 28.1745C88.6839 28.7268 89.0881 29.1536 89.5934 29.4298C90.0734 29.706 90.6039 29.8817 91.1344 29.9571C91.665 30.0324 92.1197 30.0826 92.5239 30.0826C93.3323 30.0575 94.2165 30.0575 95.126 30.0324C96.0355 30.0073 96.945 29.9571 97.8292 29.9069C98.7134 29.8315 99.5218 29.7562 100.254 29.6809V26.1157H93.4334C93.206 26.1157 92.9786 26.0655 92.8018 25.965C92.5997 25.8646 92.4481 25.714 92.3218 25.5131C92.1955 25.3122 92.145 25.0361 92.145 24.6595V22.7513L99.0418 22.5253V19.2112L92.145 18.9601V16.9516C92.145 16.4996 92.2713 16.1983 92.5239 15.9724C92.7765 15.7715 93.105 15.6711 93.5597 15.6711H100.254V12.131C99.6734 12.0808 98.9913 12.0306 98.2586 11.9803C97.526 11.9301 96.6671 11.8799 95.6818 11.8297Z" fill="url(#paint1_linear_50_1187)"/>
<path d="M117.661 11.7795H112.987L109.779 17.5039L106.191 11.7795H101.518L107.151 20.8181L101.568 29.932H106.267L109.4 24.3833L112.861 29.932H117.56L111.977 21.044L117.661 11.7795Z" fill="url(#paint2_linear_50_1187)"/>
<defs>
<linearGradient id="paint0_linear_50_1187" x1="0.344698" y1="19.5017" x2="35.3286" y2="19.5017" gradientUnits="userSpaceOnUse">
<stop stop-color="#1D54B0"/>
<stop offset="0.2128" stop-color="#1E6AC6"/>
<stop offset="0.5072" stop-color="#2082DF"/>
<stop offset="0.7778" stop-color="#2191EE"/>
<stop offset="1" stop-color="#2196F3"/>
</linearGradient>
<linearGradient id="paint1_linear_50_1187" x1="94.0672" y1="30.0875" x2="94.0672" y2="11.778" gradientUnits="userSpaceOnUse">
<stop stop-color="#1D54B0"/>
<stop offset="0.2128" stop-color="#1E6AC6"/>
<stop offset="0.5072" stop-color="#2082DF"/>
<stop offset="0.7778" stop-color="#2191EE"/>
<stop offset="1" stop-color="#2196F3"/>
</linearGradient>
<linearGradient id="paint2_linear_50_1187" x1="109.584" y1="29.9406" x2="109.584" y2="11.778" gradientUnits="userSpaceOnUse">
<stop stop-color="#1D54B0"/>
<stop offset="0.2128" stop-color="#1E6AC6"/>
<stop offset="0.5072" stop-color="#2082DF"/>
<stop offset="0.7778" stop-color="#2191EE"/>
<stop offset="1" stop-color="#2196F3"/>
</linearGradient>
</defs>
</svg>
