<svg width="29" height="30" viewBox="0 0 29 30" fill="none" xmlns="http://www.w3.org/2000/svg">
<path d="M14.5267 29.0282C22.3172 29.0282 28.6325 22.7219 28.6325 14.9426C28.6325 7.16329 22.3172 0.856934 14.5267 0.856934C6.73629 0.856934 0.420898 7.16329 0.420898 14.9426C0.420898 22.7219 6.73629 29.0282 14.5267 29.0282Z" fill="#C9C8C8"/>
<path d="M23.5387 10.4207C23.3224 9.61066 22.6832 8.97732 21.8769 8.7613C20.4118 8.36853 14.5315 8.36853 14.5315 8.36853C14.5315 8.36853 8.65117 8.36853 7.18602 8.7613C6.37477 8.97732 5.74052 9.61557 5.52419 10.4207C5.13086 11.8838 5.13086 14.9425 5.13086 14.9425C5.13086 14.9425 5.13086 17.9963 5.52419 19.4642C5.74052 20.2743 6.37969 20.9077 7.18602 21.1237C8.65117 21.5164 14.5315 21.5164 14.5315 21.5164C14.5315 21.5164 20.4118 21.5164 21.8769 21.1237C22.6882 20.9077 23.3224 20.2694 23.5387 19.4642C23.9321 18.0012 23.9321 14.9425 23.9321 14.9425C23.9321 14.9425 23.9271 11.8838 23.5387 10.4207ZM12.6435 17.7606V12.1244L17.5306 14.9425L12.6435 17.7606Z" fill="#12293D"/>
</svg>
