<svg width="29" height="29" viewBox="0 0 29 29" fill="none" xmlns="http://www.w3.org/2000/svg">
<path d="M14.1058 28.1713C21.8963 28.1713 28.2116 21.8649 28.2116 14.0856C28.2116 6.30636 21.8963 0 14.1058 0C6.31539 0 0 6.30636 0 14.0856C0 21.8649 6.31539 28.1713 14.1058 28.1713Z" fill="#C9C8C8"/>
<path d="M11.7655 16.2998L11.4459 19.7071C11.4459 19.7071 11.3132 20.7528 12.3555 19.7071C13.4027 18.6613 14.4008 17.8561 14.4008 17.8561L11.7655 16.2998Z" fill="#12293D"/>
<path d="M9.57729 15.2787L6.13565 14.1593C6.13565 14.1593 5.72265 13.9923 5.8554 13.6143C5.8849 13.5358 5.93898 13.4719 6.10123 13.3541C6.86331 12.8239 20.2169 8.03209 20.2169 8.03209C20.2169 8.03209 20.5955 7.90444 20.8167 7.98791C20.92 8.02718 20.9839 8.07137 21.038 8.22848C21.0576 8.28739 21.0675 8.41013 21.0675 8.53287C21.0675 8.62124 21.0576 8.70471 21.0478 8.83236C20.9642 10.1432 18.5305 19.9231 18.5305 19.9231C18.5305 19.9231 18.383 20.4976 17.8618 20.5172C17.6701 20.5221 17.439 20.4877 17.1637 20.2472C16.141 19.3684 12.601 16.9921 11.8193 16.4717C11.775 16.4422 11.7603 16.403 11.7554 16.3686C11.7455 16.3146 11.8045 16.2459 11.8045 16.2459C11.8045 16.2459 17.9651 10.7766 18.1322 10.2021C18.147 10.1579 18.0978 10.1334 18.0339 10.153C17.6258 10.3052 10.5311 14.7779 9.74446 15.2738C9.70512 15.2983 9.57729 15.2787 9.57729 15.2787Z" fill="#12293D"/>
</svg>
