<svg width="29" height="29" viewBox="0 0 29 29" fill="none" xmlns="http://www.w3.org/2000/svg">
<path d="M14.5199 28.1713C22.3103 28.1713 28.6257 21.8649 28.6257 14.0856C28.6257 6.30636 22.3103 0 14.5199 0C6.72945 0 0.414062 6.30636 0.414062 14.0856C0.414062 21.8649 6.72945 28.1713 14.5199 28.1713Z" fill="#C9C8C8"/>
<path d="M11.6733 22.1961C18.5615 22.1961 22.3276 16.4961 22.3276 11.557C22.3276 11.395 22.3227 11.233 22.3178 11.0759C23.0503 10.5457 23.6846 9.88778 24.1861 9.14152C23.5125 9.44101 22.7947 9.63739 22.0375 9.73067C22.8094 9.26917 23.4043 8.53273 23.6846 7.66373C22.9618 8.09087 22.1604 8.40508 21.3049 8.57201C20.6215 7.84539 19.648 7.38879 18.5713 7.38879C16.5014 7.38879 14.8248 9.06297 14.8248 11.1299C14.8248 11.4245 14.8592 11.7092 14.9232 11.9842C11.8109 11.8271 9.04778 10.3395 7.20404 8.07614C6.88446 8.63092 6.69763 9.26917 6.69763 9.95652C6.69763 11.2526 7.35646 12.4015 8.36437 13.0692C7.74979 13.0496 7.17454 12.8826 6.66813 12.6028C6.66813 12.6175 6.66813 12.6322 6.66813 12.6519C6.66813 14.4635 7.9612 15.9757 9.67219 16.3194C9.35753 16.4028 9.02811 16.4519 8.68395 16.4519C8.44303 16.4519 8.20703 16.4274 7.98087 16.3832C8.45778 17.8708 9.83936 18.9509 11.4815 18.9804C10.1983 19.9819 8.58561 20.5809 6.83037 20.5809C6.53046 20.5809 6.23054 20.5613 5.93555 20.5269C7.58754 21.5775 9.55419 22.1961 11.6733 22.1961Z" fill="#12293D"/>
</svg>
