<svg width="29" height="29" viewBox="0 0 29 29" fill="none" xmlns="http://www.w3.org/2000/svg">
<path d="M28.5886 14.0856C28.5886 6.30884 22.2756 0 14.4828 0C6.68991 0 0.376953 6.30393 0.376953 14.0856C0.376953 21.1162 5.5345 26.9439 12.2801 27.9994V18.1557H8.70081V14.0856H12.2801V10.9828C12.2801 7.45277 14.3844 5.50366 17.6098 5.50366C19.1536 5.50366 20.7662 5.7786 20.7662 5.7786V9.24478H18.9864C17.2361 9.24478 16.6854 10.3298 16.6854 11.4443V14.0856H20.5991L19.9747 18.1557H16.6903V27.9994C23.431 26.939 28.5886 21.1162 28.5886 14.0856Z" fill="#C9C8C8"/>
<path d="M19.975 18.1557L20.5994 14.0856H16.6858V11.4443C16.6858 10.3298 17.2315 9.24478 18.9868 9.24478H20.7666V5.7786C20.7666 5.7786 19.1539 5.50366 17.6101 5.50366C14.3897 5.50366 12.2805 7.45277 12.2805 10.9828V14.0856H8.70117V18.1557H12.2805V27.9994C12.9983 28.1124 13.7358 28.1713 14.4831 28.1713C15.2305 28.1713 15.968 28.1124 16.6858 27.9994V18.1557H19.975V18.1557Z" fill="#12293D"/>
</svg>
