<svg width="29" height="30" viewBox="0 0 29 30" fill="none" xmlns="http://www.w3.org/2000/svg">
<path d="M14.8939 29.0282C22.6843 29.0282 28.9997 22.7219 28.9997 14.9426C28.9997 7.16329 22.6843 0.856934 14.8939 0.856934C7.10347 0.856934 0.788086 7.16329 0.788086 14.9426C0.788086 22.7219 7.10347 29.0282 14.8939 29.0282Z" fill="#C9C8C8"/>
<path d="M14.8941 7.67157C17.2639 7.67157 17.5442 7.68139 18.4832 7.72558C19.3486 7.76485 19.8206 7.90723 20.1303 8.02997C20.5433 8.19199 20.8383 8.38346 21.153 8.69277C21.4676 9.00207 21.6545 9.29665 21.8167 9.71397C21.9396 10.0282 22.0822 10.4946 22.1215 11.3587C22.1658 12.2915 22.1756 12.5763 22.1756 14.9427C22.1756 17.3091 22.1658 17.589 22.1215 18.5267C22.0822 19.3908 21.9396 19.8621 21.8167 20.1714C21.6545 20.5838 21.4627 20.8784 21.153 21.1926C20.8432 21.5019 20.5482 21.6934 20.1303 21.8554C19.8156 21.9781 19.3486 22.1205 18.4832 22.1598C17.5491 22.204 17.2639 22.2138 14.8941 22.2138C12.5243 22.2138 12.244 22.204 11.3049 22.1598C10.4396 22.1205 9.96762 21.9781 9.65788 21.8554C9.24488 21.6934 8.94988 21.5019 8.63521 21.1926C8.32547 20.8833 8.13372 20.5887 7.97147 20.1714C7.84855 19.8572 7.70597 19.3908 7.66664 18.5267C7.62239 17.5939 7.61255 17.3091 7.61255 14.9427C7.61255 12.5763 7.62239 12.2964 7.66664 11.3587C7.70597 10.4946 7.84855 10.0233 7.97147 9.71397C8.13372 9.30156 8.32547 9.00698 8.63521 8.69277C8.94496 8.38346 9.23996 8.19199 9.65788 8.02997C9.97254 7.90723 10.4396 7.76485 11.3049 7.72558C12.244 7.68139 12.5243 7.67157 14.8941 7.67157ZM14.8941 6.07104C12.48 6.07104 12.1801 6.08086 11.2312 6.12505C10.2872 6.16924 9.63821 6.31652 9.07771 6.53746C8.49263 6.7633 7.99605 7.06769 7.50439 7.55865C7.01272 8.04961 6.7079 8.54548 6.48173 9.12972C6.26048 9.69433 6.11298 10.3375 6.06873 11.2801C6.02448 12.2277 6.01465 12.5272 6.01465 14.9378C6.01465 17.3484 6.02448 17.6479 6.06873 18.5954C6.11298 19.5381 6.26048 20.1861 6.48173 20.7458C6.7079 21.3301 7.01272 21.8259 7.50439 22.3169C7.99605 22.8079 8.49263 23.1123 9.07771 23.3381C9.64313 23.559 10.2872 23.7063 11.2312 23.7505C12.1801 23.7947 12.48 23.8045 14.8941 23.8045C17.3082 23.8045 17.6081 23.7947 18.557 23.7505C19.501 23.7063 20.15 23.559 20.7105 23.3381C21.2955 23.1123 21.7921 22.8079 22.2838 22.3169C22.7754 21.8259 23.0803 21.3301 23.3064 20.7458C23.5277 20.1812 23.6752 19.5381 23.7194 18.5954C23.7637 17.6479 23.7735 17.3484 23.7735 14.9378C23.7735 12.5272 23.7637 12.2277 23.7194 11.2801C23.6752 10.3375 23.5277 9.68942 23.3064 9.12972C23.0803 8.54548 22.7754 8.04961 22.2838 7.55865C21.7921 7.06769 21.2955 6.7633 20.7105 6.53746C20.1451 6.31652 19.501 6.16924 18.557 6.12505C17.6081 6.08086 17.3082 6.07104 14.8941 6.07104Z" fill="#12293D"/>
<path d="M14.8937 10.3866C12.3764 10.3866 10.3311 12.4241 10.3311 14.9427C10.3311 17.4564 12.3715 19.4988 14.8937 19.4988C17.411 19.4988 19.4563 17.4613 19.4563 14.9427C19.4563 12.4241 17.4159 10.3866 14.8937 10.3866ZM14.8937 17.8983C13.2565 17.8983 11.9339 16.5727 11.9339 14.9427C11.9339 13.3078 13.2614 11.9871 14.8937 11.9871C16.5309 11.9871 17.8535 13.3127 17.8535 14.9427C17.8535 16.5727 16.5309 17.8983 14.8937 17.8983Z" fill="#12293D"/>
<path d="M19.6392 11.2753C20.2284 11.2753 20.7061 10.7983 20.7061 10.2099C20.7061 9.62152 20.2284 9.14453 19.6392 9.14453C19.0499 9.14453 18.5723 9.62152 18.5723 10.2099C18.5723 10.7983 19.0499 11.2753 19.6392 11.2753Z" fill="#12293D"/>
</svg>
